<svg xmlns="http://www.w3.org/2000/svg" width="512" height="512" fill="none" viewBox="0 0 512 512"><path fill="url(#paint0_linear_15_2)" d="M199.992 80C142.64 80 95.9761 126.656 95.9761 184.016C95.9761 241.376 142.64 288.032 199.992 288.032C257.344 288.032 304.008 241.376 304.008 184.016C304.008 126.656 257.344 80 199.992 80ZM199.992 272.024C151.464 272.024 111.984 232.544 111.984 184.016C111.984 135.488 151.464 96.008 199.992 96.008C248.52 96.008 288 135.488 288 184.016C288 232.544 248.52 272.024 199.992 272.024Z"/><path fill="url(#paint1_linear_15_2)" d="M438.16 388.472L368.144 309.56C362.392 303.064 352.184 302.2 345.384 307.616L325.496 323.4L292.496 283.448C319.192 258.6 336.008 223.28 336.008 184.016C336.008 109.016 274.992 48 199.992 48C124.992 48 63.9761 109.016 63.9761 184.016C63.9761 259.016 124.992 320.032 199.992 320.032C229.984 320.032 257.648 310.16 280.16 293.648L312.952 333.352L294.024 348.368C290.552 351.12 288.44 355.024 288.056 359.36C287.68 363.672 289.072 367.84 291.976 371.112L362 450.032C370.176 459.248 381.912 464 393.72 464C403.072 464 412.472 461.016 420.176 454.904L433.032 444.712C441.672 437.848 446.944 428.168 447.88 417.464C448.8 406.872 445.352 396.576 438.16 388.472ZM79.9761 184.016C79.9761 117.84 133.816 64 199.992 64C266.168 64 320.008 117.84 320.008 184.016C320.008 250.192 266.176 304.032 199.992 304.032C133.808 304.032 79.9761 250.192 79.9761 184.016ZM389.136 357.328L337.4 398.392L325.584 385.144L377.36 344.056L389.136 357.328ZM355.344 320.144C355.448 320.064 355.584 320.032 355.736 320.032C355.912 320.032 356.096 320.088 356.176 320.176L366.728 332.072L314.92 373.184L303.976 360.912L355.344 320.144ZM423.08 432.176L410.224 442.368C399.336 451.016 383.072 449.688 373.968 439.416L348.056 410.36L399.768 369.32L426.192 399.096C430.432 403.88 432.472 409.904 431.936 416.072C431.392 422.36 428.24 428.08 423.08 432.176Z"/><defs><linearGradient id="paint0_linear_15_2" x1="196.088" x2="208.088" y1="42.16" y2="478.216" gradientUnits="userSpaceOnUse"><stop stop-color="#312E81"/><stop offset="1" stop-color="#312E81"/></linearGradient><linearGradient id="paint1_linear_15_2" x1="248.872" x2="260.872" y1="40.712" y2="476.76" gradientUnits="userSpaceOnUse"><stop stop-color="#312E81"/><stop offset="1" stop-color="#5450D7"/></linearGradient></defs></svg>